<svg width="311" height="63" viewBox="0 0 311 63" fill="none" xmlns="http://www.w3.org/2000/svg">
<g clip-path="url(#clip0)">
<path fill-rule="evenodd" clip-rule="evenodd" d="M15.2501 47.9082C6.23173 38.8899 6.23173 24.2683 15.2501 15.25C24.2684 6.23162 38.89 6.23162 47.9084 15.25C56.9267 24.2683 56.9267 38.8899 47.9084 47.9082C38.89 56.9266 24.2684 56.9266 15.2501 47.9082ZM3.81235 18.4984C-1.54765 29.8776 0.47536 43.8709 9.8814 53.2769C21.8648 65.2603 41.2937 65.2603 53.277 53.2769C65.2604 41.2935 65.2604 21.8647 53.277 9.88128C43.871 0.475292 29.8779 -1.54775 18.4987 3.81216L0.697959 0.697753L3.81235 18.4984Z" fill="white"/>
<path fill-rule="evenodd" clip-rule="evenodd" d="M15.2501 47.9082C6.23173 38.8899 6.23173 24.2683 15.2501 15.25C24.2684 6.23162 38.89 6.23162 47.9084 15.25C56.9267 24.2683 56.9267 38.8899 47.9084 47.9082C38.89 56.9266 24.2684 56.9266 15.2501 47.9082ZM3.81235 18.4984C-1.54765 29.8776 0.47536 43.8709 9.8814 53.2769C21.8648 65.2603 41.2937 65.2603 53.277 53.2769C65.2604 41.2935 65.2604 21.8647 53.277 9.88128C43.871 0.475292 29.8779 -1.54775 18.4987 3.81216L0.697959 0.697753L3.81235 18.4984Z" fill="url(#paint0_linear)"/>
<path d="M82.3494 57.0769C81.4108 57.0769 80.6214 56.7783 79.9814 56.1809C79.3841 55.5409 79.0854 54.7516 79.0854 53.8129V25.2689C79.0854 24.2876 79.3841 23.4983 79.9814 22.9009C80.6214 22.3036 81.4108 22.0049 82.3494 22.0049C83.3308 22.0049 84.1201 22.3036 84.7174 22.9009C85.3148 23.4983 85.6134 24.2876 85.6134 25.2689V25.9729C86.9361 24.6503 88.5361 23.6049 90.4134 22.8369C92.2908 22.0689 94.3174 21.6849 96.4934 21.6849C99.4374 21.6849 102.061 22.3249 104.365 23.6049C106.712 24.8423 108.547 26.6769 109.869 29.1089C111.235 31.5409 111.917 34.5276 111.917 38.0689V53.8129C111.917 54.7516 111.597 55.5409 110.957 56.1809C110.36 56.7783 109.592 57.0769 108.653 57.0769C107.715 57.0769 106.925 56.7783 106.285 56.1809C105.688 55.5409 105.389 54.7516 105.389 53.8129V38.0689C105.389 34.4423 104.408 31.7969 102.445 30.1329C100.525 28.4263 98.1148 27.5729 95.2134 27.5729C93.4214 27.5729 91.8001 27.9356 90.3494 28.6609C88.8988 29.3863 87.7468 30.3676 86.8934 31.6049C86.0401 32.7996 85.6134 34.1863 85.6134 35.7649V53.8129C85.6134 54.7516 85.3148 55.5409 84.7174 56.1809C84.1201 56.7783 83.3308 57.0769 82.3494 57.0769ZM82.3494 44.2769C81.4108 44.2769 80.6214 43.9783 79.9814 43.3809C79.3841 42.7409 79.0854 41.9516 79.0854 41.0129V10.2929C79.0854 9.3116 79.3841 8.52227 79.9814 7.92494C80.6214 7.3276 81.4108 7.02894 82.3494 7.02894C83.3308 7.02894 84.1201 7.3276 84.7174 7.92494C85.3148 8.52227 85.6134 9.3116 85.6134 10.2929V41.0129C85.6134 41.9516 85.3148 42.7409 84.7174 43.3809C84.1201 43.9783 83.3308 44.2769 82.3494 44.2769ZM137.365 57.2689C134.25 57.2689 131.456 56.5009 128.981 54.9649C126.506 53.3863 124.544 51.2743 123.093 48.6289C121.685 45.9409 120.981 42.9116 120.981 39.5409C120.981 36.1703 121.749 33.1409 123.285 30.4529C124.864 27.7649 126.976 25.6529 129.621 24.1169C132.309 22.5383 135.317 21.7489 138.645 21.7489C141.973 21.7489 144.96 22.5383 147.605 24.1169C150.25 25.6529 152.341 27.7649 153.877 30.4529C155.456 33.1409 156.245 36.1703 156.245 39.5409V53.8129C156.245 54.7516 155.925 55.5409 155.285 56.1809C154.688 56.7783 153.92 57.0769 152.981 57.0769C152.042 57.0769 151.253 56.7783 150.613 56.1809C150.016 55.5409 149.717 54.7516 149.717 53.8129V51.4449C148.224 53.2369 146.41 54.6663 144.277 55.7329C142.186 56.7569 139.882 57.2689 137.365 57.2689ZM138.645 51.5089C140.821 51.5089 142.762 50.9969 144.469 49.9729C146.176 48.9063 147.52 47.4769 148.501 45.6849C149.482 43.8503 149.973 41.8023 149.973 39.5409C149.973 37.2369 149.482 35.1889 148.501 33.3969C147.52 31.5623 146.176 30.1329 144.469 29.1089C142.762 28.0423 140.821 27.5089 138.645 27.5089C136.512 27.5089 134.57 28.0423 132.821 29.1089C131.114 30.1329 129.749 31.5623 128.725 33.3969C127.744 35.1889 127.253 37.2369 127.253 39.5409C127.253 41.8023 127.744 43.8503 128.725 45.6849C129.749 47.4769 131.114 48.9063 132.821 49.9729C134.57 50.9969 136.512 51.5089 138.645 51.5089ZM169.16 57.0129C167.027 57.0129 165.96 55.9463 165.96 53.8129V25.2049C165.96 23.0716 167.027 22.0049 169.16 22.0049C171.294 22.0049 172.36 23.0716 172.36 25.2049V26.4209C173.64 24.9276 175.198 23.7543 177.032 22.9009C178.91 22.0476 180.936 21.6209 183.112 21.6209C185.672 21.6209 187.571 22.0476 188.808 22.9009C190.088 23.7116 190.579 24.6929 190.28 25.8449C190.067 26.7409 189.64 27.3383 189 27.6369C188.36 27.8929 187.614 27.9356 186.76 27.7649C184.03 27.2103 181.576 27.1676 179.4 27.6369C177.224 28.1063 175.496 28.9809 174.216 30.2609C172.979 31.5409 172.36 33.1623 172.36 35.1249V53.8129C172.36 55.9463 171.294 57.0129 169.16 57.0129ZM214.685 57.2689C211.357 57.2689 208.371 56.5009 205.725 54.9649C203.08 53.3863 200.989 51.2529 199.453 48.5649C197.917 45.8769 197.128 42.8476 197.085 39.4769V10.2929C197.085 9.3116 197.384 8.52227 197.981 7.92494C198.621 7.3276 199.411 7.02894 200.349 7.02894C201.331 7.02894 202.12 7.3276 202.717 7.92494C203.315 8.52227 203.613 9.3116 203.613 10.2929V27.5729C205.107 25.7809 206.899 24.3729 208.989 23.3489C211.123 22.2823 213.448 21.7489 215.965 21.7489C219.08 21.7489 221.875 22.5383 224.349 24.1169C226.824 25.6529 228.765 27.7649 230.173 30.4529C231.624 33.0983 232.349 36.1063 232.349 39.4769C232.349 42.8476 231.56 45.8769 229.981 48.5649C228.445 51.2529 226.355 53.3863 223.709 54.9649C221.064 56.5009 218.056 57.2689 214.685 57.2689ZM214.685 51.5089C216.861 51.5089 218.803 50.9969 220.509 49.9729C222.216 48.9063 223.56 47.4556 224.541 45.6209C225.565 43.7863 226.077 41.7383 226.077 39.4769C226.077 37.1729 225.565 35.1249 224.541 33.3329C223.56 31.5409 222.216 30.1329 220.509 29.1089C218.803 28.0423 216.861 27.5089 214.685 27.5089C212.552 27.5089 210.611 28.0423 208.861 29.1089C207.155 30.1329 205.811 31.5409 204.829 33.3329C203.848 35.1249 203.357 37.1729 203.357 39.4769C203.357 41.7383 203.848 43.7863 204.829 45.6209C205.811 47.4556 207.155 48.9063 208.861 49.9729C210.611 50.9969 212.552 51.5089 214.685 51.5089ZM257.957 57.2689C254.501 57.2689 251.451 56.5223 248.805 55.0289C246.16 53.4929 244.069 51.4023 242.533 48.7569C241.04 46.0689 240.293 42.9969 240.293 39.5409C240.293 36.0423 241.04 32.9703 242.533 30.3249C244.069 27.6369 246.16 25.5463 248.805 24.0529C251.451 22.5169 254.501 21.7489 257.957 21.7489C261.371 21.7489 264.4 22.5169 267.045 24.0529C269.691 25.5463 271.76 27.6369 273.253 30.3249C274.789 32.9703 275.557 36.0423 275.557 39.5409C275.557 42.9969 274.811 46.0689 273.317 48.7569C271.824 51.4023 269.755 53.4929 267.109 55.0289C264.464 56.5223 261.413 57.2689 257.957 57.2689ZM257.957 51.5089C260.176 51.5089 262.139 50.9969 263.845 49.9729C265.552 48.9489 266.875 47.5409 267.813 45.7489C268.795 43.9569 269.285 41.8876 269.285 39.5409C269.285 37.1943 268.795 35.1249 267.813 33.3329C266.875 31.4983 265.552 30.0689 263.845 29.0449C262.139 28.0209 260.176 27.5089 257.957 27.5089C255.739 27.5089 253.776 28.0209 252.069 29.0449C250.363 30.0689 249.019 31.4983 248.037 33.3329C247.056 35.1249 246.565 37.1943 246.565 39.5409C246.565 41.8876 247.056 43.9569 248.037 45.7489C249.019 47.5409 250.363 48.9489 252.069 49.9729C253.776 50.9969 255.739 51.5089 257.957 51.5089ZM288.473 57.0129C286.34 57.0129 285.273 55.9463 285.273 53.8129V25.2049C285.273 23.0716 286.34 22.0049 288.473 22.0049C290.606 22.0049 291.673 23.0716 291.673 25.2049V26.4209C292.953 24.9276 294.51 23.7543 296.345 22.9009C298.222 22.0476 300.249 21.6209 302.425 21.6209C304.985 21.6209 306.884 22.0476 308.121 22.9009C309.401 23.7116 309.892 24.6929 309.593 25.8449C309.38 26.7409 308.953 27.3383 308.313 27.6369C307.673 27.8929 306.926 27.9356 306.073 27.7649C303.342 27.2103 300.889 27.1676 298.713 27.6369C296.537 28.1063 294.809 28.9809 293.529 30.2609C292.292 31.5409 291.673 33.1623 291.673 35.1249V53.8129C291.673 55.9463 290.606 57.0129 288.473 57.0129Z" fill="white"/>
</g>
<defs>
<linearGradient id="paint0_linear" x1="26.9875" y1="-3.17899" x2="26.9875" y2="65.8089" gradientUnits="userSpaceOnUse">
<stop stop-color="#A9F0FF"/>
<stop offset="1" stop-color="#4F95FE"/>
</linearGradient>
<clipPath id="clip0">
<rect width="311" height="63" fill="white"/>
</clipPath>
</defs>
</svg>
